<svg width="340" height="50" viewBox="0 0 340 50" fill="none" xmlns="http://www.w3.org/2000/svg">
<mask id="mask0_383_37" style="mask-type:luminance" maskUnits="userSpaceOnUse" x="0" y="0" width="340" height="50">
<path d="M339.53 0H0.00195312V50H339.53V0Z" fill="white"/>
</mask>
<g mask="url(#mask0_383_37)">
<path d="M55.2433 47.1801C52.3769 45.2846 50.5508 42.6725 49.6955 39.3207C48.8633 35.9688 49.1869 32.1778 50.6663 27.9476C52.1458 23.7173 54.4805 19.9494 57.6705 16.5976C60.8605 13.2458 64.536 10.6336 68.6969 8.73813C72.8809 6.84261 77.1573 5.91797 81.5494 5.91797C85.2479 5.91797 88.3686 6.56522 90.8883 7.85972C93.4079 9.15422 95.2803 11.0266 96.4592 13.4769L88.0681 19.3253C86.3575 15.9966 83.3755 14.3322 79.0991 14.3322C76.4639 14.3322 73.898 14.9101 71.4245 16.0659C68.9511 17.2217 66.7551 18.8398 64.8827 20.9203C63.0103 23.0007 61.6002 25.3354 60.6756 27.9938C59.7509 30.629 59.4967 32.9869 59.9359 35.0673C60.3751 37.1477 61.4153 38.7428 63.1028 39.8986C64.7671 41.0544 66.9169 41.6323 69.5753 41.6323C73.8286 41.6323 77.9895 39.9448 82.0579 36.5698L86.3575 42.4182C83.468 44.8916 80.278 46.7871 76.8106 48.0816C73.3432 49.3761 69.7833 50.0234 66.0847 50.0234C61.7389 50.0234 58.1328 49.0756 55.2896 47.2032" fill="white"/>
<path d="M120.409 39.8522C122.836 38.6964 125.009 37.0782 126.882 35.0209C128.754 32.9405 130.164 30.5826 131.089 27.9474C132.013 25.3122 132.268 22.9543 131.828 20.8739C131.389 18.7934 130.372 17.1984 128.731 16.0195C127.113 14.8637 125.032 14.2858 122.513 14.2858C119.993 14.2858 117.52 14.8637 115.069 16.0195C112.619 17.1753 110.469 18.7934 108.597 20.8739C106.701 22.9543 105.314 25.2891 104.367 27.9474C103.442 30.5826 103.211 32.9405 103.65 35.0209C104.089 37.1014 105.106 38.6964 106.748 39.8522C108.366 41.008 110.446 41.5859 112.966 41.5859C115.485 41.5859 117.959 41.008 120.386 39.8522M99.073 47.1337C96.1835 45.2151 94.3342 42.603 93.4789 39.2511C92.6467 35.8993 92.9472 32.1314 94.4035 27.9474C95.8598 23.7634 98.1946 19.9955 101.361 16.6437C104.551 13.2918 108.25 10.6566 112.48 8.73797C116.711 6.84246 121.033 5.87158 125.448 5.87158C129.864 5.87158 133.516 6.84246 136.382 8.73797C139.249 10.6566 141.121 13.2687 141.976 16.6437C142.832 19.9955 142.531 23.7634 141.075 27.9474C139.619 32.1314 137.284 35.8993 134.071 39.2511C130.881 42.603 127.159 45.2382 122.975 47.1337C118.768 49.0523 114.445 50.0001 110.03 50.0001C105.615 50.0001 101.939 49.0523 99.0499 47.1337" fill="white"/>
</g>
<path d="M195.791 6.61084L180.881 49.2599H190.751L196.184 33.726H208.99L211.741 25.8203H198.958L202.91 14.5396H265.879L268.652 6.61084H195.791Z" fill="white"/>
<path d="M155.939 6.61084L141.029 49.2599H150.9L156.332 33.726H176.073L178.847 25.8203H159.106L163.036 14.5396H185.412L188.186 6.61084H155.939Z" fill="white"/>
<path d="M219.396 19.5806L209.225 49.2616H219.095L229.243 19.5806H219.396Z" fill="white"/>
<path d="M315.211 6.61084L290.246 33.1249L283.542 6.61084H275.382L260.449 49.2599H269.719L278.48 24.2253L283.796 44.7523H288.235L308.161 23.6705L299.284 49.2599H308.531L323.325 6.61084H315.211Z" fill="white"/>
<path d="M234.861 19.5806L224.76 49.2616H253.747L256.544 41.2403H237.427L244.709 19.5806H234.861Z" fill="white"/>
<path d="M324.943 0.000488281V1.4568H327.162V7.88306H328.873V1.4568H331.162V0.000488281H324.966H324.943ZM338.073 0.000488281L335.877 4.09203L333.612 0.000488281H332.017V7.88306H333.658V3.07492L335.253 6.05689H336.478L338.073 3.05181V7.88306H339.553V0.000488281H338.096H338.073Z" fill="white"/>
<path d="M2.84327 41.8408L0 49.9777H33.0097L35.853 41.8408H2.84327Z" fill="white"/>
<path d="M44.5909 14.2164L47.4573 6.07959H15.3722L12.5059 14.2164H44.5909Z" fill="white"/>
<path d="M33.775 31.4139L36.5951 23.3232H9.3182L6.49805 31.4139H33.775Z" fill="white"/>
</svg>
