<svg width="197" height="50" viewBox="0 0 197 50" fill="none" xmlns="http://www.w3.org/2000/svg">
<path d="M159.628 25C159.628 14.5817 164.857 8.97023 172.882 8.95012C180.822 8.99035 186.115 14.6018 186.072 25C186.115 35.3781 180.822 41.0298 172.882 41.0499C164.857 41.0097 159.628 35.3781 159.628 25ZM197 25C197 9.11102 186.563 0 172.903 0C159.243 0 148.742 9.11102 148.742 25C148.742 40.889 159.158 50 172.903 50C186.648 50 197 40.889 197 25ZM141.016 0.663717H130.323V49.3162H141.016V0.663717ZM94.5301 21.0378V8.86967H103.025C107.912 8.86967 110.687 11.2631 110.644 14.7828C110.687 18.6846 107.293 21.0579 102.811 21.0378H94.5301ZM94.5301 40.9895V27.9566H103.879C109.15 27.9566 112.48 30.8528 112.437 34.9356C112.48 38.5961 109.791 41.0097 103.601 40.9895H94.5515H94.5301ZM83.837 49.3162H105.735C117.389 49.3162 123.515 43.6042 123.557 35.8809C123.515 28.7007 118.029 24.3162 112.224 24.0547V23.5921C117.538 22.4859 121.53 18.8858 121.487 13.1738C121.53 5.85278 115.745 0.683829 104.369 0.683829H83.837V49.3363V49.3162ZM19.4012 0.663717V49.3162H29.8168V17.3371H30.2437L43.7114 49.115H50.8401L64.3078 17.4779H64.7347V49.3162H75.1503V0.663717H61.896L47.5745 33.6484H46.9983L32.6555 0.663717H19.4012ZM10.6931 0.663717H0V49.3162H10.6931V0.663717Z" fill="white"/>
</svg>
