<svg width="502" height="501" viewBox="0 0 502 501" fill="none" xmlns="http://www.w3.org/2000/svg">
<path d="M366.005 0.03125L308.64 105.64L387.135 250.052L308.64 394.464L366.005 500.031L501.865 250.052L366.005 0.03125Z" fill="#D1D4D1"/>
<path d="M193.91 394.464L251.275 500.031L308.64 394.464L251.275 288.897L193.91 394.464ZM251.275 0.03125L193.91 105.64L251.275 211.207L308.64 105.64L251.275 0.03125Z" fill="#696666"/>
<path d="M308.64 105.6L251.275 211.209L272.364 250.053L251.275 288.856L308.64 394.465L387.136 250.053L308.64 105.6Z" fill="#636363"/>
<path d="M270.23 414.767C271.067 407.986 270.858 400.912 269.77 395.261L272.824 396.726C273.661 402.628 273.661 409.451 272.908 416.064C272.448 420.167 271.276 425.106 270.356 427.827L267.427 426.445C268.64 423.055 269.728 419.12 270.272 414.809M265.753 411.083L266.465 415.813C265.126 416.316 262.741 417.278 261.36 418.115L260.69 413.427C262.113 412.59 264.582 411.502 265.795 411.083M264.414 401.372L265.084 406.102C263.787 406.563 261.402 407.525 259.979 408.279L259.31 403.632C260.69 402.837 263.201 401.791 264.456 401.372" fill="white"/>
<path d="M275.921 389.274L282.992 375.419C283.62 374.205 284.122 372.991 284.456 372.237L286.8 376.214C286.465 376.8 285.754 378.014 285.168 379.102L278.097 392.957C277.343 394.422 276.507 396.222 276.046 397.227L273.703 393.25C274.205 392.413 275.209 390.571 275.921 389.232" fill="white"/>
<path d="M292.196 345.531L295.125 350.554C298.305 355.995 299.142 359.428 299.393 363.404C299.602 366.92 298.974 370.855 298.347 373.325L295.334 373.241C296.296 370.102 296.798 367.046 296.631 363.865C296.422 360.181 295.501 357.963 293.158 354.028L290.313 349.214C289.727 348.21 289.225 347.456 288.765 346.828L290.773 342.936C291.15 343.689 291.61 344.568 292.196 345.573M285.878 357.126L290.899 365.665C291.275 366.293 291.861 367.255 292.238 367.8L290.313 371.525C290.062 371.023 289.518 369.934 289.058 369.181L284.037 360.684C283.744 360.223 283.242 359.344 282.823 358.842L284.706 355.116C285.041 355.744 285.334 356.33 285.794 357.126" fill="white"/>
<path d="M306.59 341.848C307.343 334.899 306.799 327.658 305.628 322.635L308.766 324.184C309.77 329.541 310.063 336.49 309.393 343.062C308.975 347.206 308.096 351.936 306.59 356.205L303.536 355.033C305.251 350.471 306.213 345.783 306.632 341.848M301.778 333.727L301.987 339.001C300.481 338.918 297.217 339.378 295.46 340.006L295.209 335.067C296.841 334.439 300.104 333.727 301.778 333.769" fill="white"/>
<path d="M318.138 291.869L317.594 294.757C316.674 294.255 315.418 293.585 314.456 293.376L315.042 290.529C315.92 290.78 317.385 291.45 318.138 291.869ZM317.259 296.138L316.757 298.817L318.64 297.938C318.766 298.692 319.017 299.78 319.268 300.617C320.23 303.547 321.444 308.403 321.904 313.551C322.406 318.951 322.155 324.351 320.774 331.09L317.636 331.467C319.435 324.644 319.602 319.579 319.268 314.807C319.017 311.082 317.971 306.561 317.092 304.259L313.368 311.5C313.787 315.435 313.954 319.914 313.619 324.142L310.899 324.895C311.653 317.695 310.899 312.128 310.23 308.696C310.063 307.691 309.644 305.975 309.268 304.887L311.904 302.292C312.113 303.798 312.448 305.598 312.615 306.436V306.645L315.293 301.496C315.711 300.701 316.088 299.696 316.255 298.943L316.423 298.859C315.586 298.357 314.414 297.771 313.535 297.478L314.121 294.631C315 294.883 316.423 295.594 317.218 296.055" fill="white"/>
<path d="M338.349 291.827L337.805 290.906L333.997 298.398L334.541 299.319L338.349 291.827ZM332.658 296.18L333.161 297.017L336.968 289.524L336.466 288.687L332.658 296.18ZM333.412 281.613L331.487 285.38L332.826 287.641L333.704 285.883L332.868 286.594C332.7 285.757 332.491 284.585 332.324 283.873L333.495 282.785C333.621 283.873 333.746 284.878 333.83 285.673L334.751 283.873L333.412 281.613ZM330.273 297.31L337.01 284.125L341.11 291.115L339.604 294.045L339.311 293.501L335.504 300.994L335.838 301.538L334.416 304.342L330.315 297.352L330.273 297.31ZM329.897 293.375L330.608 291.994C330.273 291.575 329.688 291.199 329.186 291.073L329.646 289.315C330.148 289.399 330.734 289.734 331.11 290.11L330.65 291.91L331.78 289.734L330.441 287.473L328.558 291.157L329.897 293.417V293.375ZM321.445 286.134L322.198 287.431L329.144 273.786L328.391 272.446L321.445 286.092V286.134ZM330.943 276.757C332.324 277.637 334.081 277.385 335.504 276.339C335.42 277.344 335.378 279.269 335.504 280.315L336.968 282.785L329.562 297.31L327.888 294.464L327.805 295.343C327.512 295.301 327.094 295.301 326.717 295.301C328.851 299.361 330.985 304.426 331.78 309.449C331.194 309.575 330.064 310.161 329.478 310.621C328.516 304.217 325.336 298.398 322.951 294.338L318.6 286.929L328.683 267.172L332.156 273.074L323.621 289.775L324.499 291.282C325.001 292.161 325.545 293.082 326.089 294.087C326.257 291.785 326.173 289.231 325.796 287.473L327.47 285.631C327.679 286.72 327.805 287.934 327.93 289.148L332.156 280.86L331.152 280.567L328.14 286.469L327.01 284.543L330.985 276.757H330.943Z" fill="white"/>
<path d="M136.545 0.03125L0.726562 250.052L136.545 500.031L193.91 394.464L115.457 250.052L193.91 105.64L136.545 0.03125Z" fill="#D1D4D1"/>
<path d="M193.91 105.6L115.457 250.053L193.91 394.465L251.275 288.856L230.187 250.053L251.275 211.209L193.91 105.6Z" fill="#C2C2C2"/>
<path d="M251.275 211.207L230.187 250.052L251.275 288.855L272.363 250.052L251.275 211.207Z" fill="#C2C2C2"/>
<path d="M137.298 432.933C137.758 432.347 138.302 431.426 138.888 430.212C141.147 425.733 141.44 421.129 139.474 417.78C137.591 414.599 135.331 415.436 133.239 419.58C132.402 421.254 131.9 422.51 131.649 423.263L137.34 432.891L137.298 432.933ZM126.461 425.607C127.34 423.138 128.72 419.915 130.771 415.896C132.988 411.543 135.08 409.115 137.047 408.571C138.846 408.027 140.813 408.99 142.403 411.668C143.993 414.389 144.829 417.571 144.788 420.961C144.788 425.398 143.491 430.128 141.315 434.356C140.729 435.486 140.185 436.449 139.725 437.118L146.043 447.834L143.03 453.736L126.461 425.649V425.607Z" fill="white"/>
<path d="M158.72 395.636L152.444 407.942L157.381 416.314L164.411 402.542L166.921 406.812L156.837 426.569L140.059 398.063L149.766 379.06L152.276 383.329L145.624 396.389L149.975 403.714L156.251 391.408L158.72 395.636Z" fill="white"/>
<path d="M158.302 360.517C159.097 367.633 161.148 375.586 165.625 383.204C170.018 390.697 174.537 393.794 178.47 394.799L176.253 399.152C172.863 398.524 168.052 396.18 163.198 387.976C158.386 379.688 156.671 371.107 156.043 364.912L158.261 360.517H158.302Z" fill="white"/>
<path d="M174.202 370.311C176.545 374.288 179.432 375.041 181.315 371.399C183.031 368.009 182.529 362.693 180.102 358.549C178.219 355.326 175.206 353.317 173.114 357.377C170.98 361.605 172.194 366.837 174.202 370.269M183.156 352.27C187.592 359.847 186.504 369.348 183.407 375.334C180.018 382.032 174.997 383.162 171.106 376.59C167.131 369.809 167.256 360.6 170.897 353.442C174.495 346.41 179.432 345.991 183.114 352.27" fill="white"/>
<path d="M183.576 343.941C181.945 341.137 180.731 339.211 179.56 337.495L182.196 332.304L184.622 336.03L184.706 335.821C183.576 331.76 184.12 327.491 185.417 324.979C185.71 324.393 185.92 324.1 186.212 323.682L189.099 328.579C188.807 328.998 188.472 329.416 188.095 330.17C186.631 333.016 186.589 336.574 187.677 339.42C187.886 339.965 188.179 340.634 188.514 341.22L194.79 351.852L191.736 357.838L183.535 343.899L183.576 343.941Z" fill="white"/>
<path d="M200.103 309.533C200.563 308.989 201.107 308.026 201.693 306.812C203.952 302.334 204.245 297.729 202.278 294.38C200.396 291.199 198.136 292.036 196.044 296.18C195.207 297.855 194.705 299.11 194.454 299.906L200.144 309.533H200.103ZM189.266 302.208C190.144 299.738 191.525 296.515 193.575 292.497C195.793 288.144 197.885 285.716 199.852 285.172C201.651 284.627 203.617 285.59 205.207 288.269C206.797 290.99 207.634 294.171 207.592 297.562C207.592 301.999 206.253 306.729 204.119 310.956C203.576 312.087 203.032 313.049 202.529 313.677L208.848 324.393L205.835 330.337L189.266 302.25V302.208Z" fill="white"/>
<path d="M213.951 282.408C214.412 281.864 214.955 280.901 215.541 279.687C217.801 275.209 218.094 270.604 216.127 267.255C214.244 264.074 211.985 264.911 209.893 269.055C209.056 270.73 208.512 271.985 208.303 272.739L213.993 282.366L213.951 282.408ZM203.114 275.083C203.993 272.613 205.374 269.39 207.424 265.372C209.642 261.019 211.734 258.591 213.7 258.047C215.499 257.502 217.466 258.465 219.056 261.144C220.646 263.865 221.483 267.046 221.441 270.437C221.441 274.874 220.102 279.604 217.968 283.831C217.424 284.962 216.88 285.924 216.378 286.552L222.696 297.268L219.684 303.212L203.114 275.125V275.083Z" fill="white"/>
<path d="M235.292 283.247C234.497 276.173 232.363 268.178 227.927 260.643C223.492 253.109 219.015 249.969 215.082 248.965L217.3 244.653C220.731 245.197 225.542 247.583 230.438 255.871C235.292 264.159 236.923 272.657 237.509 278.894L235.292 283.205V283.247Z" fill="white"/>
<path d="M367.554 432.933C368.014 432.388 368.558 431.426 369.144 430.212C371.403 425.733 371.696 421.129 369.73 417.78C367.847 414.599 365.587 415.436 363.495 419.58C362.658 421.254 362.156 422.51 361.905 423.305L367.596 432.933H367.554ZM356.717 425.607C357.595 423.138 358.976 419.915 361.026 415.896C363.244 411.543 365.378 409.115 367.303 408.571C369.102 408.027 371.069 408.99 372.659 411.668C374.248 414.389 375.085 417.571 375.043 420.961C375.043 425.398 373.705 430.128 371.571 434.356C370.985 435.486 370.483 436.449 369.981 437.118L376.299 447.834L373.286 453.736L356.717 425.649V425.607Z" fill="white"/>
<path d="M388.977 395.636L382.701 407.942L387.638 416.314L394.667 402.542L397.178 406.812L387.094 426.569L370.315 398.063L380.023 379.06L382.533 383.329L375.88 396.389L380.232 403.714L386.508 391.408L388.977 395.636Z" fill="white"/>
<path d="M388.559 360.517C389.354 367.633 391.405 375.586 395.882 383.204C400.275 390.697 404.794 393.794 408.727 394.799L406.509 399.152C403.12 398.524 398.267 396.138 393.455 387.976C388.643 379.688 386.927 371.107 386.3 364.912L388.517 360.558L388.559 360.517Z" fill="white"/>
<path d="M404.458 370.311C406.801 374.288 409.688 375.041 411.571 371.399C413.287 368.009 412.785 362.693 410.358 358.549C408.475 355.326 405.462 353.317 403.37 357.377C401.236 361.605 402.45 366.837 404.458 370.269M413.412 352.27C417.889 359.847 416.76 369.348 413.663 375.334C410.274 382.032 405.253 383.162 401.404 376.59C397.429 369.809 397.554 360.6 401.195 353.442C404.793 346.41 409.73 345.991 413.412 352.27Z" fill="white"/>
<path d="M413.872 343.941C412.24 341.137 411.027 339.211 409.855 337.495L412.492 332.304L414.918 336.03L415.002 335.821C413.872 331.76 414.416 327.491 415.713 324.979C416.006 324.393 416.215 324.1 416.508 323.682L419.395 328.579C419.102 328.998 418.768 329.416 418.391 330.17C416.927 333.016 416.885 336.574 417.973 339.462C418.182 340.006 418.475 340.676 418.81 341.262L425.086 351.894L422.031 357.88L413.83 343.941H413.872Z" fill="white"/>
<path d="M430.358 309.533C430.818 308.989 431.362 308.026 431.948 306.812C434.207 302.334 434.5 297.729 432.533 294.38C430.65 291.199 428.391 292.036 426.299 296.18C425.462 297.855 424.96 299.11 424.709 299.906L430.399 309.533H430.358ZM419.521 302.208C420.399 299.738 421.78 296.515 423.83 292.497C426.048 288.144 428.14 285.716 430.107 285.172C431.906 284.627 433.872 285.59 435.462 288.269C437.052 290.99 437.889 294.171 437.847 297.562C437.847 301.999 436.508 306.729 434.374 310.956C433.789 312.087 433.286 313.049 432.784 313.719L439.102 324.435L436.09 330.379L419.521 302.292V302.208Z" fill="white"/>
<path d="M444.206 282.408C444.666 281.864 445.21 280.901 445.796 279.687C448.056 275.209 448.348 270.604 446.382 267.255C444.499 264.074 442.24 264.911 440.147 269.055C439.311 270.73 438.809 271.985 438.558 272.739L444.248 282.366L444.206 282.408ZM433.369 275.083C434.248 272.613 435.629 269.39 437.679 265.372C439.896 261.019 442.03 258.591 443.955 258.047C445.754 257.502 447.721 258.465 449.311 261.144C450.901 263.865 451.738 267.046 451.696 270.437C451.696 274.874 450.357 279.604 448.223 283.831C447.637 284.962 447.093 285.924 446.633 286.594L452.951 297.31L449.938 303.254L433.369 275.167V275.083Z" fill="white"/>
<path d="M465.547 283.247C464.752 276.173 462.619 268.178 458.183 260.643C453.748 253.109 449.271 249.969 445.338 248.965L447.555 244.653C450.987 245.197 455.798 247.583 460.694 255.871C465.506 264.159 467.179 272.657 467.765 278.894L465.547 283.205V283.247Z" fill="white"/>
<path d="M296.212 308.906C296.463 308.445 296.505 307.859 296.003 307.022C295.627 306.394 294.915 305.264 294.078 303.966C293.785 306.394 293.911 308.487 294.413 309.324C294.873 310.119 295.878 309.575 296.212 308.906ZM297.844 279.019L298.639 283.121C297.384 283.33 294.58 284.879 293.325 285.716L292.572 281.865C294.12 280.777 296.631 279.437 297.886 279.019M288.43 288.981C288.764 289.567 289.099 290.195 289.476 290.865C290.187 288.939 290.857 286.888 291.275 285.172L293.2 288.186C292.656 289.985 291.944 292.037 291.233 293.92C291.652 294.715 292.154 295.469 292.572 296.181L293.116 297.101C293.744 294.925 294.497 292.874 295.166 291.451C297.133 287.432 299.936 286.302 302.028 289.776C303.828 292.748 304.371 296.557 302.949 301.706C302.53 303.171 301.986 304.385 301.526 305.515L298.974 303.464C299.56 302.292 300.104 301.162 300.438 300.073C301.233 297.604 301.484 294.925 300.355 293.083C299.309 291.367 297.928 291.911 296.84 294.171C296.045 295.762 295.375 297.729 294.832 299.78C296.045 301.706 297.258 303.631 297.802 304.469C299.685 307.566 299.602 309.533 298.765 311.25C297.509 313.761 294.497 315.226 292.865 312.547C291.526 310.371 291.442 305.473 292.237 300.952C291.861 300.366 291.484 299.78 291.149 299.194C290.731 298.483 290.313 297.813 289.894 297.101C289.643 297.604 289.434 298.106 289.225 298.525C288.346 300.283 287.844 301.245 287.342 302.041L285.501 299.069C286.379 297.729 286.923 296.641 287.384 295.678C287.593 295.218 287.844 294.674 288.095 294.129C287.593 293.209 287.133 292.497 286.882 292.078C286.547 291.576 285.752 290.446 285.459 290.069L287.216 286.469C287.467 287.014 288.053 288.186 288.43 288.897" fill="white"/>
<path d="M309.979 282.451C310.816 280.776 310.69 279.479 309.644 277.804L309.1 276.967C308.724 277.553 308.305 278.181 307.929 278.934C306.924 280.986 306.757 282.869 307.385 283.916C308.138 285.13 309.058 284.292 309.937 282.451M303.159 261.479C303.493 262.107 303.87 262.693 304.247 263.321C305.251 261.228 306.715 258.089 307.594 255.661L309.435 258.549C308.473 260.893 307.008 264.117 306.004 266.251C306.924 267.716 308.221 269.6 309.393 271.316C311.569 268.93 314.037 267.884 315.879 267.716L316.715 272.698C315.125 272.739 313.242 273.2 311.485 274.497L312.029 275.335C313.368 277.553 314.079 280.818 311.904 285.213C310.063 288.939 307.845 290.78 305.795 287.39C304.205 284.795 304.079 280.4 306.464 275.586C306.715 275.083 307.008 274.581 307.259 274.121C306.046 272.237 304.707 270.228 303.87 268.888C302.949 267.382 302.071 265.875 301.401 264.828C300.648 263.656 299.937 262.652 299.477 262.191L301.401 258.256C301.778 259.135 302.489 260.433 303.075 261.438" fill="white"/>
<path d="M320.356 225.899L319.77 228.452C318.892 227.74 317.72 226.861 316.841 226.359L317.385 223.848C318.306 224.308 319.561 225.229 320.356 225.857M319.519 229.75L318.933 232.303C318.013 231.55 316.925 230.671 315.963 230.168L316.59 227.657C317.427 228.201 318.724 229.08 319.519 229.75ZM309.31 248.251C310.44 245.656 312.281 240.8 312.741 238.498L314.917 240.298C314.833 240.842 314.666 241.512 314.582 242.182C314.498 245.237 315.084 252.604 318.013 257.46C319.77 260.39 321.444 259.553 322.699 257.083C325.544 251.349 322.867 243.605 316.381 236.531C315.963 236.196 315.586 235.861 315.168 235.526L316.256 231.382C318.431 234.019 321.36 236.908 325.461 236.489L326.172 241.47C324.959 241.386 323.703 241.093 322.406 240.507C326.046 245.865 328.306 253.232 324.708 260.516C322.657 264.702 319.519 266.041 316.799 261.52C314.331 257.46 313.368 252.646 312.741 247.247C312.322 248.335 311.611 250.135 311.276 251.014C311.067 251.642 310.9 252.06 310.649 252.772L308.557 249.758C308.808 249.339 309.059 248.837 309.268 248.293" fill="white"/>
<path d="M246.046 377.553L245.586 380.064C244.54 379.646 243.117 379.143 242.071 379.018L242.532 376.59C243.536 376.799 245.168 377.218 246.046 377.553ZM245.126 381.822L244.665 384.292C243.703 383.873 242.197 383.329 241.151 383.203L241.653 380.734C242.615 380.901 244.205 381.404 245.126 381.822ZM240.649 389.859L241.569 386.175C243.41 386.845 246.841 388.52 249.143 389.817C251.318 391.073 254.707 393.375 256.716 394.882L255.67 398.942C253.452 397.059 250.607 395.049 248.222 393.584C245.879 392.161 242.573 390.445 240.649 389.859ZM236.632 396.305L238.64 393.71C238.975 394.505 239.477 395.677 239.77 396.347C240.69 398.314 242.573 402.751 243.703 406.184C244.749 409.407 245.753 413.593 246.297 416.983L243.954 418.909C243.494 415.183 242.49 411.039 241.569 408.026C240.398 404.216 238.473 399.57 236.632 396.305Z" fill="white"/>
<path d="M255.711 356.791L258.724 361.061C262.615 366.586 263.493 369.642 263.87 373.702C264.205 377.344 263.535 381.237 262.866 383.874L260.188 384.083C261.15 380.86 261.736 377.637 261.485 374.288C261.15 370.437 260.021 368.177 257.05 363.949L254.163 359.805C253.535 358.926 252.991 358.298 252.531 357.754L254.246 354.447C254.665 355.117 255.125 355.912 255.753 356.791M248.765 369.391L254.414 377.469C254.874 378.097 255.46 378.893 255.836 379.311L254.163 382.492C253.912 382.074 253.326 381.111 252.866 380.441L247.217 372.363C246.924 371.944 246.296 371.107 245.92 370.688L247.594 367.507C247.928 368.093 248.305 368.721 248.807 369.391" fill="white"/>
<path d="M269.183 332.43C269.81 335.36 270.564 341.095 270.271 345.867L267.928 346.537C268.346 342.853 267.928 338.081 267.384 335.905L259.434 351.099C258.848 352.188 258.388 353.234 257.802 354.532L255.919 351.853C256.547 350.932 257.216 349.885 257.802 348.797L265.919 333.309C266.254 332.682 266.84 331.384 267.007 330.84L268.932 330.505C268.974 331.007 269.099 331.928 269.183 332.43ZM271.233 366.796L268.639 367.55C268.89 366.503 269.141 365.164 269.225 363.699C269.727 357.504 267.969 353.862 265.166 349.844C264.706 349.174 264.287 348.63 263.743 348.085L265.417 344.904C269.852 351.183 272.865 356.248 271.317 366.796" fill="white"/>
<path d="M282.991 322.72C282.823 321.757 282.53 320.418 282.279 319.664L283.367 318.66C283.535 319.832 283.744 321.004 283.869 321.967L282.949 322.72H282.991ZM283.535 317.027L281.024 321.799L282.74 324.227L285.25 319.455L283.535 317.027ZM278.932 326.236C279.56 326.236 280.313 326.487 280.773 326.864L280.355 328.538C279.894 328.204 279.099 327.911 278.472 327.827L278.89 326.236H278.932ZM269.769 323.892L270.898 325.525L279.099 309.911L277.97 308.321L269.769 323.934V323.892ZM279.35 330.673L281.777 326.069L280.062 323.641L277.635 328.245L279.35 330.673ZM282.196 333.059L282.949 334.106L287.803 324.855L287.049 323.808L282.196 333.059ZM289.434 327.115L288.639 325.985L283.786 335.236L284.581 336.366L289.434 327.115ZM280.062 334.064L287.426 320.041L291.987 326.529L290.69 328.957L290.355 328.455L285.501 337.705L285.878 338.25L284.664 340.594L280.104 334.064H280.062ZM280.48 313.218C282.112 313.93 284.162 313.344 285.752 312.088C285.669 312.967 285.669 314.516 285.752 315.353C285.585 315.437 285.376 315.562 285.208 315.646L287.175 318.451L279.016 333.98L276.84 330.883C276.798 331.427 276.756 331.971 276.673 332.473C276.38 332.473 275.961 332.473 275.585 332.473C278.012 336.324 280.522 341.18 281.443 346.286C280.94 346.412 279.936 346.998 279.434 347.417C278.263 340.97 274.664 335.445 271.986 331.636L267.091 324.646L277.97 303.884L281.568 309.032L272.028 327.241L273.325 329.083C273.869 329.878 274.497 330.757 275.124 331.72C275.417 329.124 275.334 326.153 274.873 324.143L276.38 322.469C276.631 323.767 276.798 325.148 276.882 326.613L282.238 316.441C281.694 316.441 281.15 316.441 280.648 316.316L277.175 322.929L276.129 321.423L280.438 313.218H280.48Z" fill="white"/>
</svg>
