<svg width="553" height="501" viewBox="0 0 553 501" fill="none" xmlns="http://www.w3.org/2000/svg">
<path d="M416.633 0.03125L381.641 64.5717L482.311 250.031L381.641 435.491L416.633 499.989L552.378 250.031L416.633 0.03125Z" fill="#696666"/>
<path d="M417.592 392.38L421.187 385.307L437.993 413.894L446.104 397.989L449.114 403.179L437.408 426.115L417.592 392.38Z" fill="white"/>
<path d="M311.572 435.491L346.606 500.031L381.64 435.491L346.606 370.95L311.572 435.491ZM346.606 0.03125L311.572 64.5717L346.606 129.112L381.64 64.5717L346.606 0.03125Z" fill="#D1D4D1"/>
<path d="M381.641 64.5713L346.607 129.07L412.244 250.031L346.607 370.95L381.641 435.49L482.311 250.031L381.641 64.5713Z" fill="#C2C2C2"/>
<path d="M241.506 435.491L276.54 500.031L311.573 435.491L276.54 370.95L241.506 435.491ZM276.54 0.03125L241.506 64.5717L276.54 129.112L311.573 64.5717L276.54 0.03125Z" fill="#696666"/>
<path d="M311.573 64.5713L276.539 129.112L311.573 193.652L346.607 129.112L311.573 64.5713ZM311.573 306.451L276.539 370.992L311.573 435.532L346.607 370.992L311.573 306.451Z" fill="#636363"/>
<path d="M346.606 129.07L311.572 193.611L342.175 250.031L311.572 306.452L346.606 370.95L412.242 250.031L346.606 129.07Z" fill="#636161"/>
<path d="M171.436 435.491L206.469 500.031L241.503 435.491L206.469 370.95L171.436 435.491ZM206.469 0.03125L171.436 64.5717L206.469 129.112L241.503 64.5717L206.469 0.03125Z" fill="#D1D4D1"/>
<path d="M241.503 64.5713L206.469 129.112L241.503 193.652L276.536 129.112L241.503 64.5713ZM241.503 306.451L206.469 370.992L241.503 435.532L276.536 370.992L241.503 306.451Z" fill="#C2C2C2"/>
<path d="M276.54 129.07L241.506 193.611L272.15 250.031L241.506 306.452L276.54 370.95L311.573 306.452L280.929 250.031L311.573 193.611L276.54 129.07Z" fill="#C2C2C2"/>
<path d="M311.572 193.61L280.928 250.031L311.572 306.451L342.174 250.031L311.572 193.61Z" fill="#C2C2C2"/>
<path d="M241.296 386.856L241.672 389.325C242.299 388.446 244.431 386.228 244.515 386.144C244.515 386.019 244.347 384.01 243.72 382.168L241.337 386.856H241.296ZM247.107 375.513L245.393 378.903C246.396 381.749 246.647 384.47 246.689 384.596C246.73 384.512 248.612 383.173 250.618 382.628L251.12 386.521C251.12 386.521 248.779 387.232 246.898 388.572C246.898 394.139 244.013 400.459 243.929 400.71L241.63 399.663C241.839 399.287 244.138 395.185 244.682 390.413C243.386 391.502 242.592 392.632 242.466 392.841L242.675 394.39L240.501 395.729L239.665 390.204L237.909 393.678L236.446 391.167L238.871 386.437L238.035 381.917L239.958 380.075L240.501 383.172L245.685 373.002L247.148 375.513H247.107ZM236.78 370.281L234.272 375.22L236.906 378.359L238.62 374.969L236.78 370.281ZM243.762 370.323L234.941 387.609L233.436 385.056L235.317 381.331L232.642 378.275L231.471 380.577L230.05 378.15L233.143 372.081L232.474 370.951C232.056 370.239 231.555 369.57 231.471 369.444L233.394 366.054C233.394 366.054 233.603 366.765 234.063 367.561L234.816 368.816L238.202 362.203L239.623 364.631L238.411 367.016L240.125 371.913L242.257 367.728L243.762 370.281V370.323ZM235.986 391.125L235.443 394.599L239.163 400.961C240.418 403.095 240.961 404.602 240.585 406.528C240.209 408.118 239.581 409.206 239.08 409.75L236.78 407.448L237.617 406.235C237.993 405.565 238.244 405.021 237.282 403.43L234.607 398.868L234.188 401.965L232.015 400.333L232.809 395.813L229.757 390.581L228.461 393.134L226.914 390.497L228.168 388.028L224.949 382.88L226.872 379.531L229.757 384.889L230.886 382.628L232.433 385.265L231.262 387.525L233.687 391.627L234.23 388.237L235.944 391.125H235.986Z" fill="#595757"/>
<path d="M262.284 358.981L261.615 357.809L256.933 367.017L257.602 368.189L262.284 358.981ZM260.444 355.926L259.776 354.754L255.093 363.962L255.762 365.134L260.444 355.926ZM258.647 352.828L257.978 351.698L253.295 360.906L253.964 362.036L258.647 352.828ZM247.861 336.589L250.118 334.579L250.62 338.932L253.379 333.491L254.675 335.71L249.993 344.876L250.704 346.131L254.675 338.346L256.013 340.607L252.041 348.392L252.836 349.773L258.103 339.435L259.441 341.695L251.038 358.186C251.247 358.688 251.456 359.232 251.665 359.776L258.438 346.508L265.085 357.809L257.1 373.421L253.714 367.603C254.508 372.458 254.215 376.309 254.215 377.565L251.581 377.774C251.707 376.183 252.543 368.315 249.408 361.45L247.066 366.054L245.729 363.794L251.08 353.289L250.285 351.907L246.356 359.651L245.018 357.39L248.948 349.647L248.237 348.392L243.513 357.683L242.217 355.465L244.767 350.443L242.551 350.191L243.178 345.964L246.105 346.383L245.938 348.099L248.864 342.406L247.861 336.63V336.589Z" fill="#595757"/>
<path d="M278.209 328.594L277.666 327.673L273.36 336.17L273.903 337.09L278.209 328.636V328.594ZM276.746 326.041L276.244 325.162L271.938 333.658L272.44 334.537L276.746 326.082V326.041ZM272.607 318.339L273.193 321.52L272.022 322.525L271.186 319.511L272.607 318.297V318.339ZM274.07 320.097L272.231 317L270.35 320.725L272.189 323.822L274.112 320.097H274.07ZM280.718 327.213L273.276 341.778L269.346 335.123L276.788 320.558L280.718 327.213ZM270.057 326.334L269.597 328.552L267.841 327.631L268.385 325.036L270.057 326.334ZM270.768 326.585L268.928 323.487L267.089 327.129L268.928 330.226L270.768 326.585ZM268.427 307.959L267.465 306.369L259.146 322.65L260.107 324.283L268.427 308.001V307.959ZM274.572 312.521L273.276 313.861L276.453 319.26L268.594 334.705L265.458 329.347L264.957 331.649L263.995 331.272C264.957 333.114 266.002 335.207 266.88 337.258C269.305 343.034 270.35 348.6 270.433 348.893L268.176 350.442C268.176 350.442 267.172 344.499 264.497 338.43C261.612 331.817 256.554 324.199 256.303 323.822L267.841 301.179L271.228 306.913L261.32 326.375L263.117 329.598C263.619 327.799 264.162 324.911 264.246 321.813L266.002 321.144C266.127 323.362 265.835 324.827 265.793 325.538L270.893 315.535L269.179 316.33L267.005 320.599L265.876 318.674L268.594 313.317C268.594 313.317 269.932 312.689 271.604 311.182C272.565 310.261 273.569 308.964 273.82 308.587L274.53 312.521H274.572Z" fill="#595757"/>
<path d="M136.403 0.03125L0.699219 250.031L136.403 499.989L171.437 435.491L70.7668 250.031L171.437 64.5717L136.403 0.03125Z" fill="#696666"/>
<path d="M171.438 64.5713L70.7676 250.031L171.438 435.49L206.471 370.95L140.835 250.031L206.471 129.07L171.438 64.5713Z" fill="#636363"/>
<path d="M206.472 129.07L140.836 250.031L206.472 370.95L241.506 306.452L210.862 250.031L241.506 193.611L206.472 129.07Z" fill="#636161"/>
<path d="M241.503 193.61L210.859 250.031L241.503 306.451L272.148 250.031L241.503 193.61Z" fill="#636161"/>
<path d="M189.625 331.189L182.183 345.754L188.036 355.674L196.314 339.392L199.324 344.457L187.409 367.812L167.551 334.035L179.048 311.559L182.016 316.581L174.114 332.026L179.257 340.732L186.698 326.166L189.625 331.189Z" fill="white"/>
<path d="M190.92 299.337L185.276 310.386L182.266 305.196L197.149 276.023L200.201 281.172L194.515 292.305L211.321 320.892L207.726 327.965L190.92 299.337Z" fill="white"/>
<path d="M164.244 375.304C164.787 374.635 165.415 373.546 166.167 372.123C168.843 366.85 169.177 361.367 166.836 357.432C164.62 353.665 161.945 354.67 159.436 359.525C158.433 361.492 157.848 362.999 157.513 363.878L164.202 375.304H164.244ZM151.451 366.598C152.496 363.669 154.127 359.86 156.552 355.088C159.185 349.94 161.694 347.094 163.993 346.424C166.125 345.797 168.466 346.927 170.306 350.108C172.187 353.33 173.149 357.097 173.107 361.115C173.107 366.389 171.518 371.956 168.968 376.937C168.299 378.276 167.63 379.406 167.087 380.159L174.57 392.883L171.017 399.873L151.451 366.557V366.598Z" fill="white"/>
<path d="M314.416 355.924L307.978 350.65C306.389 349.353 304.717 347.679 303.254 346.297V346.423C304.048 348.934 305.135 351.864 305.971 354.585L309.316 365.886L314.374 355.966L314.416 355.924ZM311.49 371.62L315.42 384.511L311.699 391.794L298.195 345.628L302.794 336.629L329.048 357.808L325.202 365.383L317.803 359.314L311.532 371.578L311.49 371.62Z" fill="white"/>
<path d="M311.949 318.673L315.545 311.6L332.351 340.228L340.461 324.324L343.513 329.472L331.807 352.45L311.949 318.673Z" fill="white"/>
<path d="M383.144 386.856L383.521 389.325C384.148 388.446 386.28 386.228 386.363 386.144C386.363 386.019 386.196 384.01 385.569 382.168L383.186 386.856H383.144ZM388.955 375.513L387.2 378.903C388.203 381.749 388.454 384.47 388.496 384.596C388.537 384.512 390.419 383.173 392.467 382.628L392.927 386.521C392.927 386.521 390.586 387.232 388.705 388.572C388.705 394.139 385.82 400.459 385.736 400.71L383.479 399.622C383.688 399.245 385.987 395.143 386.531 390.372C385.235 391.46 384.44 392.59 384.315 392.799L384.524 394.348L382.35 395.687L381.514 390.162L379.758 393.636L378.295 391.125L380.72 386.395L379.883 381.875L381.807 380.033L382.35 383.131L387.534 372.96L388.997 375.471L388.955 375.513ZM378.629 370.281L376.121 375.22L378.713 378.359L380.427 374.969L378.587 370.323L378.629 370.281ZM385.611 370.323L376.79 387.609L375.285 385.056L377.166 381.331L374.49 378.275L373.32 380.577L371.898 378.15L374.992 372.081L374.323 370.951C373.905 370.281 373.403 369.57 373.32 369.444L375.243 366.054C375.243 366.054 375.452 366.765 375.912 367.561L376.664 368.816L380.051 362.203L381.472 364.631L380.26 367.016L381.974 371.913L384.106 367.728L385.611 370.281V370.323ZM377.835 391.125L377.291 394.599L381.012 400.961C382.266 403.095 382.81 404.602 382.434 406.528C382.057 408.118 381.43 409.206 380.929 409.75L378.629 407.448L379.465 406.235C379.842 405.565 380.092 405.021 379.173 403.43L376.497 398.868L376.079 401.965L373.905 400.291L374.699 395.771L371.648 390.539L370.352 393.092L368.805 390.455L370.059 387.986L366.84 382.838L368.763 379.489L371.648 384.847L372.776 382.628L374.323 385.265L373.153 387.525L375.577 391.627L376.121 388.237L377.835 391.125Z" fill="#595757"/>
<path d="M404.132 358.979L403.463 357.807L398.781 367.015L399.45 368.145L404.132 358.937V358.979ZM402.293 355.924L401.624 354.794L396.942 364.002L397.611 365.174L402.293 355.966V355.924ZM400.495 352.826L399.826 351.696L395.144 360.904L395.813 362.035L400.495 352.826ZM389.709 336.629L391.967 334.619L392.468 338.972L395.228 333.531L396.524 335.75L391.841 344.916L392.552 346.171L396.524 338.386L397.861 340.647L393.89 348.432L394.684 349.813L399.952 339.475L401.289 341.735L392.886 358.184C393.095 358.686 393.304 359.23 393.513 359.774L400.286 346.506L406.933 357.807L398.99 373.419L395.562 367.601C396.356 372.415 396.064 376.307 396.064 377.563L393.43 377.772C393.555 376.182 394.391 368.313 391.256 361.449L388.915 366.053L387.577 363.792L392.928 353.287L392.134 351.906L388.204 359.649L386.866 357.389L390.796 349.645L390.044 348.39L385.319 357.682L384.023 355.463L386.574 350.441L384.358 350.19L384.985 345.962L387.911 346.381L387.744 348.097L390.629 342.405L389.625 336.629H389.709Z" fill="#595757"/>
<path d="M420.06 328.594L419.517 327.673L415.211 336.128L415.754 337.048L420.06 328.594ZM418.597 326.041L418.095 325.162L413.789 333.616L414.291 334.495L418.639 326.041H418.597ZM414.458 318.339L415.043 321.52L413.873 322.525L413.037 319.511L414.458 318.297V318.339ZM415.921 320.139L414.082 317.042L412.2 320.767L414.04 323.864L415.921 320.139ZM422.568 327.213L415.127 341.778L411.197 335.123L418.639 320.558L422.568 327.213ZM411.908 326.334L411.448 328.552L409.692 327.631L410.236 325.036L411.908 326.334ZM412.619 326.585L410.779 323.487L408.94 327.129L410.779 330.226L412.619 326.585ZM410.277 307.959L409.316 306.369L400.996 322.65L401.958 324.283L410.277 308.001V307.959ZM416.423 312.521L415.127 313.861L418.304 319.26L410.445 334.705L407.309 329.347L406.807 331.649L405.846 331.272C406.807 333.114 407.853 335.207 408.731 337.258C411.155 343.034 412.2 348.6 412.284 348.893L410.027 350.442C410.027 350.442 409.023 344.457 406.389 338.43C403.505 331.817 398.446 324.199 398.195 323.822L409.734 301.179L413.12 306.913L403.212 326.375L405.01 329.598C405.511 327.799 406.055 324.911 406.139 321.813L407.894 321.144C408.02 323.362 407.727 324.827 407.685 325.538L412.786 315.535L411.072 316.33L408.898 320.599L407.769 318.674L410.486 313.317C410.486 313.317 411.824 312.689 413.496 311.182C414.458 310.261 415.461 308.964 415.712 308.587L416.423 312.521Z" fill="#595757"/>
<path d="M452.709 386.061C453.294 385.224 454.047 383.759 454.799 382.294C459.523 373.169 459.691 363.292 454.674 354.711C450.326 347.177 445.309 347.889 440.794 356.72C439.665 358.939 438.913 360.738 438.537 361.91L452.709 386.061ZM432.307 364.505C433.603 360.948 435.485 356.762 437.617 352.577C441.296 345.336 444.64 341.653 447.985 340.69C451.455 339.602 454.967 341.318 458.353 347.094C461.906 353.121 463.328 359.985 463.161 366.556C462.993 373.462 460.778 381.164 456.931 388.656C454.841 392.799 453.127 395.687 451.789 397.738L432.266 364.505H432.307Z" fill="white"/>
<path d="M465.088 334.035C465.631 333.365 466.258 332.277 467.011 330.854C469.686 325.58 470.021 320.097 467.68 316.163C465.464 312.396 462.788 313.4 460.28 318.255C459.277 320.222 458.65 321.729 458.357 322.65L465.046 334.076L465.088 334.035ZM452.295 325.287C453.34 322.357 454.971 318.548 457.395 313.777C460.029 308.629 462.538 305.783 464.837 305.113C466.969 304.485 469.31 305.615 471.15 308.796C473.031 312.019 473.992 315.786 473.951 319.804C473.951 325.078 472.362 330.644 469.812 335.625C469.143 336.964 468.474 338.095 467.931 338.848L475.414 351.572L471.86 358.562L452.295 325.245V325.287Z" fill="white"/>
<path d="M490.464 289.919L483.023 304.484L488.876 314.404L497.195 298.081L500.164 303.145L488.249 326.5L468.391 292.765L479.887 270.247L482.856 275.312L474.996 290.756L480.096 299.462L487.538 284.896L490.464 289.919Z" fill="white"/>
</svg>
