<svg width="280" height="50" viewBox="0 0 280 50" fill="none" xmlns="http://www.w3.org/2000/svg">
<path d="M74.8368 2.18007C74.0886 1.20331 73.1119 0.538286 71.8857 0.205772C70.6804 -0.105959 69.4958 -0.0228309 68.3736 0.413593C67.2305 0.870799 66.3369 1.63974 65.6719 2.72041L47.7993 33.7689L29.9475 2.72041C29.6357 2.18007 29.2409 1.72287 28.7837 1.32801C28.3264 0.953928 27.8277 0.642196 27.2666 0.434375C26.7262 0.226554 26.1651 0.101862 25.5832 0.0602975C25.0013 0.0187333 24.4194 0.0602975 23.7752 0.226554C22.5698 0.559068 21.593 1.2241 20.8449 2.20085C20.0967 3.17761 19.7227 4.32063 19.7227 5.56755V49.3762H30.7164V25.6015L43.1025 47.298C43.6013 48.1916 44.2663 48.8775 45.1184 49.3347C45.9497 49.7919 46.8433 49.9997 47.7785 49.9997C48.7137 49.9997 49.6489 49.7711 50.501 49.3347C51.3738 48.8775 52.0804 48.1916 52.5584 47.3188L64.8822 25.6223V49.3762H75.9383V5.56755C75.9383 4.29985 75.5434 3.17761 74.7952 2.20085" fill="white"/>
<path d="M254.62 0.434197C250.442 0.434197 246.515 1.49408 243.065 3.34369C241.527 4.17498 240.093 5.15173 238.763 6.25319C236.996 7.99888 235.479 9.84849 234.004 11.9059L233.879 12.0722L217.274 31.7736V5.73363C217.274 4.44514 216.879 3.26056 216.09 2.24224C215.321 1.2447 214.302 0.538107 213.035 0.184812C212.536 0.0601189 212.037 0.0185547 211.538 0.0185547C211.04 0.0185547 210.562 0.0601189 210.042 0.184812C209.917 0.226376 209.813 0.26794 209.689 0.309504C208.795 0.621236 208.026 1.12001 207.403 1.78503C207.257 1.93051 207.112 2.07598 206.987 2.24224C206.946 2.2838 206.925 2.32537 206.904 2.36693L194.996 16.478L193.998 17.6626L187.597 25.2688L183.524 30.0903L181.051 33.0205C181.051 33.0205 180.989 33.1037 180.968 33.1452L180.407 33.8103C178.038 36.4704 174.609 38.1537 170.805 38.2161C163.927 38.1329 158.295 33.1452 157.443 26.682C157.443 26.5781 157.401 26.4534 157.401 26.3495C157.401 26.1624 157.401 25.9962 157.38 25.8091C157.38 25.539 157.339 25.2688 157.339 24.9986C157.339 17.7041 163.449 11.802 170.972 11.802C171.387 11.802 171.782 11.8228 172.177 11.8644C177.664 12.3216 182.194 15.9376 183.898 20.8214V20.863L191.338 12.0722L191.401 11.989C190.05 9.82771 188.366 7.89497 186.434 6.25319C185.124 5.13095 183.67 4.15419 182.152 3.34369C178.703 1.49408 174.775 0.434197 170.598 0.434197C157.048 0.434197 146.033 11.4487 146.033 24.9986C146.033 38.5486 157.048 49.5631 170.598 49.5631C177.913 49.5631 184.459 46.3419 188.969 41.2502L189.26 40.9177L189.696 40.3982L195.037 34.0596L205.844 21.2579V49.3553H217.274L230.741 33.3738L237.163 25.7676L237.578 25.2896L241.028 21.1955L241.298 20.8838L242.919 18.951L246.743 14.4206C248.572 13.0697 250.733 12.1553 253.103 11.8851C253.456 11.8644 253.809 11.8436 254.162 11.8436C261.727 11.8436 267.858 17.7457 267.879 25.0402C267.879 25.2688 267.879 25.4766 267.837 25.6845C267.837 25.9131 267.837 26.1624 267.796 26.391C267.796 26.4534 267.796 26.5157 267.775 26.5781C267.006 33.0829 261.312 38.1537 254.35 38.2576C254.287 38.2576 254.225 38.2576 254.162 38.2576C248.323 38.2576 243.335 34.7247 241.361 29.7577L241.319 29.6954L240.301 30.9008L233.9 38.507L235.542 40.4605L235.978 40.9801L236.269 41.3334C240.779 46.4042 247.325 49.6254 254.64 49.6254C268.19 49.6254 279.205 38.6109 279.205 25.061C279.205 11.5111 268.17 0.434197 254.62 0.434197Z" fill="white"/>
<path d="M136.599 0.185876C135.352 -0.125855 134.126 -0.0427267 132.962 0.41448C131.778 0.871686 130.842 1.66141 130.157 2.80442L112.679 33.2086L95.2011 2.78364C94.8686 2.22252 94.4738 1.74453 93.9958 1.34967C93.5178 0.954814 92.9982 0.643083 92.4163 0.41448C91.8552 0.206659 91.2733 0.081966 90.6914 0.0196196C90.0887 -0.0219446 89.4861 0.0196197 88.821 0.185876C87.5741 0.539172 86.5558 1.22498 85.7868 2.2433C85.0179 3.26163 84.623 4.42543 84.623 5.71392V49.3356H95.9909V26.4545L107.816 47.1534C108.315 48.0678 109.021 48.7952 109.915 49.2732C110.767 49.7304 111.702 49.959 112.679 49.959C113.656 49.959 114.612 49.7304 115.484 49.2732C116.399 48.7952 117.126 48.0678 117.625 47.1742L129.388 26.4752V49.3356H140.818V5.7347C140.818 4.44621 140.423 3.26163 139.633 2.2433C138.864 1.24576 137.846 0.559954 136.578 0.185876" fill="white"/>
<path d="M9.93385 2.18157C9.18569 1.20481 8.20893 0.539786 6.98279 0.207272C6.48402 0.0825798 6.00603 0.0410156 5.52804 0.0410156C5.05005 0.0410156 4.57206 0.0825798 4.09407 0.207272C2.86793 0.560568 1.91195 1.2256 1.14302 2.18157C0.39486 3.15833 0 4.30135 0 5.54827V49.3569H11.0561V5.56906C11.0561 4.30135 10.6612 3.17911 9.91307 2.20235" fill="white"/>
</svg>
