<svg width="300" height="50" viewBox="0 0 300 50" fill="none" xmlns="http://www.w3.org/2000/svg">
<path d="M10.0454 0H0V49.8143H10.0454V0Z" fill="white"/>
<path d="M53.3821 0L44.4506 33.9933L35.416 0H20.3789V49.8143H29.7023V10.6023L39.562 49.8143H49.2361L59.1371 10.6023V49.8143H68.4605V0H53.3821Z" fill="white"/>
<path d="M134.963 31.3326H148.04L141.501 11.5101L134.963 31.3326ZM135.685 0.557129H147.607L165.037 49.8351H154.125L150.804 39.8103H132.116L128.898 49.8351H118.275L135.685 0.557129Z" fill="white"/>
<path d="M180.592 23.7625H189.173C192.06 23.7625 194.226 23.1231 195.649 21.8442C197.093 20.5653 197.815 18.647 197.815 16.0893C197.815 13.7378 197.093 11.9845 195.649 10.8088C194.206 9.63302 192.04 9.05546 189.173 9.05546H180.592V23.7832V23.7625ZM170.299 0.557129H190.905C196.516 0.557129 200.786 1.87726 203.715 4.49689C206.644 7.13715 208.108 10.9531 208.108 15.9861C208.108 21.3079 206.644 25.3508 203.715 28.0942C200.786 30.8582 196.516 32.2402 190.905 32.2402C186.924 32.2196 183.48 32.2402 180.592 32.3021V49.8351H170.299V0.557129Z" fill="white"/>
<path d="M214.707 49.8351V0.557129H250.969V4.90943V9.30299H225V19.7609H249.092V23.9894V28.2386H225V41.0892H252.104V45.4415V49.8351H214.707Z" fill="white"/>
<path d="M114.936 21.184C114.936 24.6287 111.058 27.2895 107.737 27.2895H97.9599V40.6765C97.9599 42.4091 96.5573 43.8118 94.8246 43.8118H86.2438V6.00246H106.087C106.458 6.00246 114.957 6.06434 114.957 12.4175V21.184H114.936ZM106.066 0H80.2207V49.8143H96.2066C98.2281 49.8143 100.208 48.9685 101.632 47.5247L118.773 29.8885C120.155 28.4653 120.918 26.5882 120.918 24.608V12.3968C120.918 3.25907 112.915 0 106.066 0Z" fill="white"/>
<path d="M277.97 22.9993C282.033 22.9993 285.994 20.4416 285.994 15.7799C285.994 11.1182 282.322 8.97295 278.258 8.97295H269.884V22.9993H277.97ZM299.999 50.0001H287.726L275.102 31.4358H269.863V50.0001H259.57V0.557129H278.176C287.829 0.557129 296.266 6.37395 296.266 15.8005C296.266 22.1949 292.017 27.4341 286.138 29.9919L299.979 50.0001H299.999Z" fill="white"/>
</svg>
