<svg width="272" height="40" viewBox="0 0 272 40" fill="none" xmlns="http://www.w3.org/2000/svg">
<path d="M59.1946 30.5273H35.9941V38.8562H59.1946V30.5273Z" fill="white"/>
<path d="M4.66859 26.5951C6.20103 28.3466 7.69783 29.6335 9.19463 30.5272C10.6914 31.3851 12.1882 31.814 13.6494 31.814C15.0393 31.814 16.1441 31.4566 17.035 30.7059C17.926 29.9552 18.3536 29.0258 18.3536 27.8819C18.3536 26.6308 17.9616 25.6657 17.2132 24.9508C16.4292 24.2716 14.7185 23.5567 12.01 22.8417C8.30368 21.8408 5.7021 20.554 4.16966 18.9454C2.63722 17.3368 1.88882 15.1205 1.88882 12.3323C1.88882 8.68623 3.10052 5.75504 5.52391 3.46728C7.9473 1.17952 11.0835 0.0356445 14.9324 0.0356445C17.035 0.0356445 18.9951 0.321614 20.8483 0.893554C22.7015 1.46549 24.4834 2.3234 26.1584 3.43154L22.9153 10.8667C21.7392 9.86585 20.5276 9.11518 19.3159 8.61474C18.0685 8.11429 16.8568 7.86407 15.6451 7.86407C14.4334 7.86407 13.3999 8.15004 12.6159 8.75772C11.8319 9.36541 11.4398 10.1161 11.4398 11.0455C11.4398 11.9749 11.7962 12.7613 12.4733 13.3332C13.1505 13.9052 14.4691 14.4414 16.4292 14.9776C16.5361 15.0133 16.7143 15.0491 16.8925 15.1205C21.0978 16.2644 23.8775 17.5155 25.1961 18.8739C26.0871 19.8033 26.7642 20.9114 27.2275 22.234C27.6908 23.5567 27.9403 24.9865 27.9403 26.5951C27.9403 30.6344 26.6217 33.8516 23.9845 36.3181C21.3472 38.7488 17.8191 39.9999 13.4356 39.9999C10.7983 39.9999 8.41059 39.5352 6.23667 38.6416C4.06274 37.7479 1.99573 36.3181 0 34.4235L4.63295 26.7381L4.66859 26.5951Z" fill="white"/>
<path d="M62.1896 14.0125C62.1896 15.9071 61.8332 17.6944 61.0848 19.3745C60.3364 21.0545 59.3029 22.5916 57.8774 23.95C56.4518 25.3083 54.8838 26.3092 53.1375 27.0241C51.3912 27.7033 49.538 28.0608 47.5779 28.0608C45.6178 28.0608 43.6934 27.7033 41.9471 27.0241C40.2009 26.345 38.6328 25.3083 37.2429 23.95C35.853 22.6274 34.8195 21.126 34.0711 19.4102C33.3583 17.6944 33.002 15.9071 33.002 14.0125C33.002 12.118 33.3583 10.2949 34.0711 8.57909C34.7839 6.89902 35.853 5.36193 37.2429 4.00358C38.5971 2.68097 40.1652 1.68007 41.9115 1.00089C43.6934 0.321716 45.5466 0 47.5779 0C49.6093 0 51.4625 0.321716 53.2088 1.00089C54.955 1.68007 56.5231 2.68097 57.8774 4.00358C59.3029 5.36193 60.372 6.89902 61.0848 8.57909C61.7975 10.2592 62.1539 12.0822 62.1539 13.9768M53.0306 14.0125C53.0306 12.0465 52.5316 10.5094 51.5694 9.40126C50.5715 8.29312 49.2529 7.72118 47.5779 7.72118C45.903 7.72118 44.5487 8.29312 43.5865 9.40126C42.6242 10.5094 42.1253 12.0465 42.1253 14.0125C42.1253 15.9786 42.6242 17.5156 43.5865 18.6238C44.5487 19.7319 45.8673 20.3039 47.5779 20.3039C49.2886 20.3039 50.6072 19.7319 51.5694 18.6238C52.5316 17.5156 53.0306 15.9786 53.0306 14.0125Z" fill="white"/>
<path d="M69.2441 38.856V0.893555H92.4089V9.22242H79.2941V15.7997H91.6605V23.9499H79.2941V38.856H69.2441Z" fill="white"/>
<path d="M105.275 38.856V9.86585H96.793V0.893555H124.056V9.86585H115.61V38.856H105.275Z" fill="white"/>
<path d="M139.238 38.856H129.58V0.893555H140.343C144.548 0.893555 147.542 1.10803 149.252 1.50124C150.963 1.93019 152.388 2.60937 153.6 3.61027C154.99 4.75415 156.059 6.21974 156.808 7.93556C157.556 9.68712 157.912 11.6174 157.912 13.7264C157.912 15.9785 157.556 17.9802 156.808 19.6961C156.095 21.4119 155.026 22.8417 153.6 23.9499C152.531 24.772 151.284 25.3797 149.823 25.7372C148.361 26.0946 146.045 26.2734 142.873 26.2734H139.274V38.7845L139.238 38.856ZM139.238 17.9802H141.198C143.693 17.9802 145.403 17.6228 146.401 16.9436C147.399 16.2644 147.862 15.0848 147.862 13.4405C147.862 11.7962 147.399 10.7238 146.401 10.0446C145.439 9.36541 143.728 9.04369 141.269 9.04369H139.202V17.9445L139.238 17.9802Z" fill="white"/>
<path d="M157.912 38.856L170.991 0.893555H183.928L197.007 38.856H186.743L184.819 32.0643H170.172L168.212 38.856H157.948H157.912ZM172.381 24.6648H182.645L178.796 12.1536C178.689 11.7604 178.511 11.1527 178.297 10.2948C178.083 9.4369 177.834 8.36451 177.477 7.0419C177.264 7.97131 177.05 8.86496 176.836 9.72287C176.622 10.5808 176.408 11.3672 176.159 12.1536L172.346 24.6648H172.381Z" fill="white"/>
<path d="M228.12 13.6908C226.695 12.118 225.305 10.9741 223.879 10.2234C222.454 9.50849 220.957 9.11529 219.353 9.11529C216.395 9.11529 213.972 10.1162 212.154 12.1537C210.337 14.1912 209.41 16.8365 209.41 20.0894C209.41 23.1278 210.337 25.6658 212.226 27.6676C214.079 29.6694 216.467 30.6703 219.389 30.6703C220.993 30.6703 222.489 30.3128 223.915 29.5621C225.305 28.8472 226.73 27.6676 228.156 26.0947V37.4263C226.517 38.2127 224.877 38.8204 223.273 39.2136C221.67 39.6068 220.03 39.8213 218.355 39.8213C216.288 39.8213 214.364 39.5711 212.618 39.0706C210.871 38.5702 209.268 37.8195 207.807 36.8186C204.991 34.9241 202.817 32.5291 201.356 29.6336C199.859 26.7382 199.146 23.4853 199.146 19.8749C199.146 16.9795 199.61 14.3342 200.572 11.9392C201.499 9.57999 202.924 7.39947 204.813 5.46917C206.595 3.61037 208.626 2.25201 210.871 1.32261C213.045 0.464701 215.54 0 218.32 0C219.959 0 221.599 0.214477 223.238 0.607686C224.877 1.00089 226.481 1.60858 228.12 2.395V13.6908Z" fill="white"/>
<path d="M236.424 38.856V0.893555H246.652V18.159L258.591 0.893555H270.636L256.631 19.4101L271.848 38.856H258.983L246.652 21.8408V38.856H236.424Z" fill="white"/>
</svg>
